<svg xmlns="http://www.w3.org/2000/svg" viewBox="0 0 512 512" role="img" aria-label="SwiftASB skills icon">
  <defs>
    <radialGradient id="bg" cx="50%" cy="50%" r="66%">
      <stop offset="0" stop-color="#2a1522"/>
      <stop offset="1" stop-color="#020617"/>
    </radialGradient>
    <pattern id="scan" width="512" height="18" patternUnits="userSpaceOnUse">
      <path d="M0 9h512" stroke="#fb7185" stroke-opacity=".08" stroke-width="2"/>
    </pattern>
    <filter id="glow" x="-50%" y="-50%" width="200%" height="200%">
      <feGaussianBlur stdDeviation="7" result="blur"/>
      <feMerge><feMergeNode in="blur"/><feMergeNode in="SourceGraphic"/></feMerge>
    </filter>
  </defs>
  <rect width="512" height="512" rx="84" fill="url(#bg)"/>
  <rect width="512" height="512" rx="84" fill="url(#scan)"/>
  <circle cx="256" cy="256" r="178" fill="none" stroke="#f05138" stroke-width="12"/>
  <g filter="url(#glow)" fill="none" stroke-linecap="round" stroke-linejoin="round">
    <path d="M150 166c69 83 143 130 228 142-49 42-126 53-188 20" stroke="#f97316" stroke-width="18"/>
    <path d="M174 248c42 32 91 52 148 62-40 23-92 24-137 1" stroke="#f472b6" stroke-width="16"/>
    <path d="M334 173c44 46 47 95 9 146" stroke="#22d3ee" stroke-width="16"/>
    <path d="M292 142l70 72" stroke="#a78bfa" stroke-width="14"/>
  </g>
</svg>
