<svg xmlns="http://www.w3.org/2000/svg" viewBox="0 0 256 256" role="img" aria-labelledby="title desc">
  <title id="title">Cloud Deployment Skills icon</title>
  <desc id="desc">Neon cloud deployment badge with angular network paths.</desc>
  <rect width="256" height="256" rx="28" fill="#070814"/>
  <path d="M28 68h200M28 100h200M28 132h200M28 164h200M28 196h200" stroke="#14213d" stroke-width="2"/>
  <circle cx="128" cy="128" r="88" fill="none" stroke="#7c3aed" stroke-width="8"/>
  <path d="M75 143c-16 0-29-11-29-26 0-13 10-24 23-26 7-22 28-38 53-38 31 0 56 23 59 52 18 3 31 18 31 36 0 20-16 36-36 36H75Z" fill="#0b1220" stroke="#22d3ee" stroke-width="8" stroke-linejoin="round"/>
  <path d="M83 137h37l18-24 20 35h22" fill="none" stroke="#f472b6" stroke-width="8" stroke-linecap="round" stroke-linejoin="round"/>
  <path d="M89 178l-20 21M128 178v32M167 178l20 21" stroke="#a78bfa" stroke-width="7" stroke-linecap="round"/>
  <circle cx="69" cy="199" r="7" fill="#22d3ee"/>
  <circle cx="128" cy="213" r="7" fill="#f472b6"/>
  <circle cx="187" cy="199" r="7" fill="#22d3ee"/>
</svg>
